<?xml version="1.0" standalone="no"?>
<!DOCTYPE svg PUBLIC "-//W3C//DTD SVG 1.1//EN"
"http://www.w3.org/Graphics/SVG/1.1/DTD/svg11.dtd">

<svg width="593" height="551" view_box="0 0 593 551"
xmlns="http://www.w3.org/2000/svg"
xmlns:link="http://www.w3.org/1999/xlink">\n\n<desc>Généré par Mocodo 2.3.7 le Mon, 31 Jan 2022 02:44:20</desc>

<rect id="frame" x="0" y="0" width="593" height="551" fill="#ffffff" stroke="none" stroke-width="0"/>

<!-- Association receive -->
<line x1="364" y1="432" x2="283" y2="297" stroke="#878787" stroke-width="2"/>
<text x="318.754332991" y="348" fill="#b2182b" font-family="Verdana" font-size="12">1,1</text>
<line x1="177" y1="128" x2="283" y2="297" stroke="#878787" stroke-width="2"/>
<text x="238" y="214.120980325" fill="#b2182b" font-family="Verdana" font-size="12">0,N</text>
<g id="association-receive">
	<path d="M 298 272 a 14 14 90 0 1 14 14 V 297 h -58 V 286 a 14 14 90 0 1 14 -14" fill="#bababa" stroke="#bababa" stroke-width="0"/>
	<path d="M 312 297.0 v 11 a 14 14 90 0 1 -14 14 H 268 a 14 14 90 0 1 -14 -14 V 297.0 H 58" fill="#e0e0e0" stroke="#e0e0e0" stroke-width="0"/>
	<rect x="254" y="272" width="58" height="50" fill="none" rx="14" stroke="#878787" stroke-width="2"/>
	<line x1="254" y1="297" x2="312" y2="297" stroke="#878787" stroke-width="1"/>
	<text x="261" y="289.7" fill="#000000" font-family="Verdana" font-size="12">receive</text>
</g>

<!-- Association make -->
<line x1="364" y1="432" x2="177" y2="432" stroke="#878787" stroke-width="2"/>
<text x="289" y="449.0" fill="#b2182b" font-family="Verdana" font-size="12">1,1</text>
<line x1="65" y1="432" x2="177" y2="432" stroke="#878787" stroke-width="2"/>
<text x="126" y="449.0" fill="#b2182b" font-family="Verdana" font-size="12">0,N</text>
<g id="association-make">
	<path d="M 187 407 a 14 14 90 0 1 14 14 V 432 h -48 V 421 a 14 14 90 0 1 14 -14" fill="#bababa" stroke="#bababa" stroke-width="0"/>
	<path d="M 201 432.0 v 11 a 14 14 90 0 1 -14 14 H 167 a 14 14 90 0 1 -14 -14 V 432.0 H 48" fill="#e0e0e0" stroke="#e0e0e0" stroke-width="0"/>
	<rect x="153" y="407" width="48" height="50" fill="none" rx="14" stroke="#878787" stroke-width="2"/>
	<line x1="153" y1="432" x2="201" y2="432" stroke="#878787" stroke-width="1"/>
	<text x="160" y="424.7" fill="#000000" font-family="Verdana" font-size="12">make</text>
</g>

<!-- Association has -->
<line x1="459" y1="128" x2="283" y2="128" stroke="#878787" stroke-width="2"/>
<text x="370" y="145.0" fill="#b2182b" font-family="Verdana" font-size="12">0,1</text>
<line x1="177" y1="128" x2="283" y2="128" stroke="#878787" stroke-width="2"/>
<text x="238" y="120.0" fill="#b2182b" font-family="Verdana" font-size="12">0,N</text>
<g id="association-has">
	<path d="M 287 103 a 14 14 90 0 1 14 14 V 128 h -36 V 117 a 14 14 90 0 1 14 -14" fill="#bababa" stroke="#bababa" stroke-width="0"/>
	<path d="M 301 128.0 v 11 a 14 14 90 0 1 -14 14 H 279 a 14 14 90 0 1 -14 -14 V 128.0 H 36" fill="#e0e0e0" stroke="#e0e0e0" stroke-width="0"/>
	<rect x="265" y="103" width="36" height="50" fill="none" rx="14" stroke="#878787" stroke-width="2"/>
	<line x1="265" y1="128" x2="301" y2="128" stroke="#878787" stroke-width="1"/>
	<text x="272" y="120.7" fill="#000000" font-family="Verdana" font-size="12">has</text>
</g>

<!-- Association is -->
<line x1="554" y1="432" x2="459" y2="432" stroke="#878787" stroke-width="2"/>
<text x="497" y="449.0" fill="#b2182b" font-family="Verdana" font-size="12">0,N</text>
<line x1="364" y1="432" x2="459" y2="432" stroke="#878787" stroke-width="2"/>
<text x="418" y="449.0" fill="#b2182b" font-family="Verdana" font-size="12">1,1</text>
<g id="association-is">
	<path d="M 458 407 a 14 14 90 0 1 14 14 V 432 h -26 V 421 a 14 14 90 0 1 14 -14" fill="#bababa" stroke="#bababa" stroke-width="0"/>
	<path d="M 472 432.0 v 11 a 14 14 90 0 1 -14 14 H 460 a 14 14 90 0 1 -14 -14 V 432.0 H 26" fill="#e0e0e0" stroke="#e0e0e0" stroke-width="0"/>
	<rect x="446" y="407" width="26" height="50" fill="none" rx="14" stroke="#878787" stroke-width="2"/>
	<line x1="446" y1="432" x2="472" y2="432" stroke="#878787" stroke-width="1"/>
	<text x="453" y="424.7" fill="#000000" font-family="Verdana" font-size="12">is</text>
</g>

<!-- Entity STATUS -->
<g id="entity-STATUS">
	<g id="frame-STATUS">
		<rect x="524" y="407" width="60" height="25" fill="#f4a582" stroke="#f4a582" stroke-width="0"/>
		<rect x="524" y="432.0" width="60" height="25" fill="#fddbc7" stroke="#fddbc7" stroke-width="0"/>
		<rect x="524" y="407" width="60" height="50" fill="none" stroke="#d6604d" stroke-width="2"/>
		<line x1="524" y1="432" x2="584" y2="432" stroke="#d6604d" stroke-width="1"/>
	</g>
	<text x="529" y="424.7" fill="#000000" font-family="Verdana" font-size="12">STATUS</text>
	<text x="529" y="449.8" fill="#000000" font-family="Verdana" font-size="12">label</text>
	<line x1="529" y1="452" x2="558" y2="452" stroke="#000000" stroke-width="1"/>
</g>

<!-- Entity ORDER -->
<g id="entity-ORDER">
	<g id="frame-ORDER">
		<rect x="315" y="356" width="98" height="25" fill="#f4a582" stroke="#f4a582" stroke-width="0"/>
		<rect x="315" y="381.0" width="98" height="127" fill="#fddbc7" stroke="#fddbc7" stroke-width="0"/>
		<rect x="315" y="356" width="98" height="152" fill="none" stroke="#d6604d" stroke-width="2"/>
		<line x1="315" y1="381" x2="413" y2="381" stroke="#d6604d" stroke-width="1"/>
	</g>
	<text x="342" y="373.7" fill="#000000" font-family="Verdana" font-size="12">ORDER</text>
	<text x="320" y="398.7" fill="#000000" font-family="Verdana" font-size="12">number</text>
	<line x1="320" y1="401" x2="368" y2="401" stroke="#000000" stroke-width="1"/>
	<text x="320" y="415.7" fill="#000000" font-family="Verdana" font-size="12">date</text>
	<text x="320" y="432.8" fill="#000000" font-family="Verdana" font-size="12">prescription</text>
	<text x="320" y="449.8" fill="#000000" font-family="Verdana" font-size="12">insurance</text>
	<text x="320" y="466.8" fill="#000000" font-family="Verdana" font-size="12">vital_card</text>
	<text x="320" y="483.8" fill="#000000" font-family="Verdana" font-size="12">comments</text>
	<text x="320" y="500.8" fill="#000000" font-family="Verdana" font-size="12">recovery_time</text>
</g>

<!-- Entity BUSINESS_HOURS -->
<g id="entity-BUSINESS_HOURS">
	<g id="frame-BUSINESS_HOURS">
		<rect x="396" y="86" width="126" height="25" fill="#f4a582" stroke="#f4a582" stroke-width="0"/>
		<rect x="396" y="111.0" width="126" height="59" fill="#fddbc7" stroke="#fddbc7" stroke-width="0"/>
		<rect x="396" y="86" width="126" height="84" fill="none" stroke="#d6604d" stroke-width="2"/>
		<line x1="396" y1="111" x2="522" y2="111" stroke="#d6604d" stroke-width="1"/>
	</g>
	<text x="401" y="103.7" fill="#000000" font-family="Verdana" font-size="12">BUSINESS_HOURS</text>
	<text x="401" y="128.8" fill="#000000" font-family="Verdana" font-size="12">day_of_week</text>
	<line x1="401" y1="131" x2="482" y2="131" stroke="#000000" stroke-width="1"/>
	<text x="401" y="145.8" fill="#000000" font-family="Verdana" font-size="12">open_time</text>
	<text x="401" y="162.8" fill="#000000" font-family="Verdana" font-size="12">close_time</text>
</g>

<!-- Entity USER -->
<g id="entity-USER">
	<g id="frame-USER">
		<rect x="9" y="322" width="112" height="25" fill="#f4a582" stroke="#f4a582" stroke-width="0"/>
		<rect x="9" y="347.0" width="112" height="195" fill="#fddbc7" stroke="#fddbc7" stroke-width="0"/>
		<rect x="9" y="322" width="112" height="220" fill="none" stroke="#d6604d" stroke-width="2"/>
		<line x1="9" y1="347" x2="121" y2="347" stroke="#d6604d" stroke-width="1"/>
	</g>
	<text x="48" y="339.7" fill="#000000" font-family="Verdana" font-size="12">USER</text>
	<text x="14" y="364.7" fill="#000000" font-family="Verdana" font-size="12">firstname</text>
	<line x1="14" y1="367" x2="72" y2="367" stroke="#000000" stroke-width="1"/>
	<text x="14" y="381.7" fill="#000000" font-family="Verdana" font-size="12">lastname</text>
	<text x="14" y="398.7" fill="#000000" font-family="Verdana" font-size="12">email</text>
	<text x="14" y="415.7" fill="#000000" font-family="Verdana" font-size="12">password</text>
	<text x="14" y="432.8" fill="#000000" font-family="Verdana" font-size="12">phone_number</text>
	<text x="14" y="449.8" fill="#000000" font-family="Verdana" font-size="12">address_name</text>
	<text x="14" y="466.8" fill="#000000" font-family="Verdana" font-size="12">address_number</text>
	<text x="14" y="483.8" fill="#000000" font-family="Verdana" font-size="12">city</text>
	<text x="14" y="500.8" fill="#000000" font-family="Verdana" font-size="12">country</text>
	<text x="14" y="517.8" fill="#000000" font-family="Verdana" font-size="12">zip_code</text>
	<text x="14" y="534.8" fill="#000000" font-family="Verdana" font-size="12">role</text>
</g>

<!-- Entity PHARMACY -->
<g id="entity-PHARMACY">
	<g id="frame-PHARMACY">
		<rect x="121" y="9" width="112" height="25" fill="#f4a582" stroke="#f4a582" stroke-width="0"/>
		<rect x="121" y="34.0" width="112" height="213" fill="#fddbc7" stroke="#fddbc7" stroke-width="0"/>
		<rect x="121" y="9" width="112" height="238" fill="none" stroke="#d6604d" stroke-width="2"/>
		<line x1="121" y1="34" x2="233" y2="34" stroke="#d6604d" stroke-width="1"/>
	</g>
	<text x="143" y="26.7" fill="#000000" font-family="Verdana" font-size="12">PHARMACY</text>
	<text x="126" y="51.7" fill="#000000" font-family="Verdana" font-size="12">name</text>
	<line x1="126" y1="54" x2="161" y2="54" stroke="#000000" stroke-width="1"/>
	<text x="126" y="68.7" fill="#000000" font-family="Verdana" font-size="12">email</text>
	<text x="126" y="85.7" fill="#000000" font-family="Verdana" font-size="12">password</text>
	<text x="126" y="102.7" fill="#000000" font-family="Verdana" font-size="12">phone_number</text>
	<text x="126" y="119.7" fill="#000000" font-family="Verdana" font-size="12">is_open</text>
	<text x="126" y="136.8" fill="#000000" font-family="Verdana" font-size="12">is_premium</text>
	<text x="126" y="153.8" fill="#000000" font-family="Verdana" font-size="12">address_name</text>
	<text x="126" y="170.8" fill="#000000" font-family="Verdana" font-size="12">address_number</text>
	<text x="126" y="187.8" fill="#000000" font-family="Verdana" font-size="12">city</text>
	<text x="126" y="204.8" fill="#000000" font-family="Verdana" font-size="12">country</text>
	<text x="126" y="221.8" fill="#000000" font-family="Verdana" font-size="12">zip_code</text>
	<text x="126" y="238.8" fill="#000000" font-family="Verdana" font-size="12">profile_picture</text>
</g>
</svg>